<svg xmlns="http://www.w3.org/2000/svg" viewBox="0 0 234.76 80.63"><defs><style>.cls-1{fill:#fff;}.cls-1,.cls-10,.cls-11,.cls-12,.cls-13,.cls-3,.cls-4,.cls-5,.cls-6,.cls-7,.cls-8,.cls-9{fill-rule:evenodd;}.cls-2,.cls-6{fill:#7a171c;}.cls-3{fill:#db8c19;}.cls-4{fill:#40220f;}.cls-5{fill:#c36333;}.cls-7{fill:#123573;}.cls-8{fill:#172345;}.cls-9{fill:#f9deb5;}.cls-10{fill:#40210e;}.cls-11{fill:#e5ae64;}.cls-12{fill:#e60012;}.cls-13{fill:#c9a063;}</style></defs><g id="图层_2" data-name="图层 2"><g id="_" data-name="ͼ"><path class="cls-1" d="M190.2,78.42h1.62a.19.19,0,0,1,.14.08.2.2,0,0,1,0,.15l-.42,1.62a.19.19,0,0,1-.18.14h-1.62a.17.17,0,0,1-.14-.08.16.16,0,0,1,0-.15l.42-1.62a.18.18,0,0,1,.18-.14Zm14-5.4-1.52.4a.22.22,0,0,1-.14,0,.18.18,0,0,1-.08-.13,1.89,1.89,0,0,0-2-1.78c-1.94,0-3.28,1.37-4,3.82s0,3.74,1.91,3.81a3.59,3.59,0,0,0,3.39-2.3.2.2,0,0,1,.21-.09l1.32.35a.19.19,0,0,1,.12.1.18.18,0,0,1,0,.16A5.62,5.62,0,0,1,198,80.55c-3.06,0-4.18-1.81-3.34-5.24s3.06-5.26,6.26-5.36a3.16,3.16,0,0,1,3.4,2.86.19.19,0,0,1-.13.21Zm4.76,6.15c2.2-.1,3.65-1.39,4.37-3.86q.69-3.57-2.25-3.87c-2.11.17-3.55,1.45-4.31,3.87-.54,2.4.2,3.69,2.19,3.86ZM211.47,70c-3.25.17-5.4,2-6.45,5.36-.75,3.33.45,5.08,3.58,5.24,3.3-.1,5.44-1.86,6.44-5.3.64-3.33-.54-5.1-3.57-5.3Zm14.82.2H228a.17.17,0,0,1,.14.07.16.16,0,0,1,0,.16l-2.58,9.89a.2.2,0,0,1-.18.14h-1.18a.16.16,0,0,1-.14-.08.14.14,0,0,1,0-.15l1.53-5.87c.13-.49.37-1.23.73-2.23h-.05a13.88,13.88,0,0,1-1.05,1.79L221,80.32a.16.16,0,0,1-.15.09H220a.18.18,0,0,1-.18-.16L219,73.87a16.45,16.45,0,0,1-.07-1.79h-.05c-.13.77-.29,1.51-.48,2.23l-1.56,6a.18.18,0,0,1-.18.14h-1.13a.16.16,0,0,1-.14-.08.14.14,0,0,1,0-.15l2.58-9.89a.18.18,0,0,1,.18-.14h1.69a.18.18,0,0,1,.18.16l.89,6.78a3.22,3.22,0,0,0,0,.63.18.18,0,0,0,.33.08c.16-.27.32-.5.45-.71l4.44-6.85A.16.16,0,0,1,226.29,70.15Z"/><rect class="cls-2" x="63.89" y="38.65" width="9.59" height="2.07"/><rect class="cls-2" x="62.5" y="24.33" width="18.12" height="2.08"/><rect class="cls-2" x="74.19" y="38.65" width="3.84" height="2.07"/><rect class="cls-2" x="68.22" y="47.46" width="12.48" height="2.07"/><rect class="cls-2" x="50.04" y="47.45" width="11.39" height="2.08"/><rect class="cls-2" x="55.78" y="16.65" width="14.74" height="2.08"/><rect class="cls-2" x="64.27" y="57.32" width="7.43" height="2.07"/><rect class="cls-2" x="61.38" y="31.51" width="7.43" height="2.08"/><rect class="cls-2" x="61.84" y="51.24" width="14.74" height="2.08"/><path class="cls-3" d="M17.55,42.39l-7.85.8S2.48,41.6,1.57,46.1s2.76,4.4,2.76,4.4,1.21,4.7,6.08,1.2a64.34,64.34,0,0,1,8-4.74Z"/><path class="cls-4" d="M17.76,46.63a61.06,61.06,0,0,0-7.7,4.58,5.05,5.05,0,0,1-3,1.18c-1.64-.08-2.16-2-2.18-2l-.12-.46H4.23a2.38,2.38,0,0,1-1.73-.82,3.46,3.46,0,0,1-.33-2.85c.48-2.41,3.21-2.79,5.4-2.68a12.56,12.56,0,0,1,2,.25l.09,0,7.41-.76.69,3.58ZM7,53.6a6.15,6.15,0,0,0,3.74-1.41,63.54,63.54,0,0,1,7.94-4.68l.42-.21L18,41.74l-8.31.84a15.66,15.66,0,0,0-2.1-.25C3.86,42.15,1.49,43.44,1,46a4.59,4.59,0,0,0,.57,3.84,3.45,3.45,0,0,0,2.33,1.25A3.7,3.7,0,0,0,7,53.6Z"/><path class="cls-5" d="M16.34,45.77,15.84,48a40.7,40.7,0,0,0-6.09,3.57c-1.61,1.4-4.57,1.39-4.91-1.58C2.69,49.9,2.13,49,2,47.41a3.2,3.2,0,0,1,2-3.35s-1.11,2.62-.46,3.57S6.65,48.9,6.65,48.9s.11,2,1.16,2.1S16.34,45.77,16.34,45.77Z"/><path class="cls-3" d="M33.91,41s7.68,6.27,6.64,15.89c3.62-3.48,11-1.33,10.94,3.62S45.94,72.68,42.44,65c-2.53,3.32-5,.61-7.32-.15s-6.2-.95-8.17,4.12S24.08,83.45,12,78.76-1.18,67.12,2.36,60.84s13.23-1.72,13.23-1.72-.82-.9.94-1.68c0,0-1.9-9.57,1.57-18.66Z"/><path class="cls-4" d="M33.07,63.82c-2.14-.11-5,.66-6.68,4.9-.28.71-.53,1.49-.79,2.31-1.31,4.06-2.79,8.65-8.3,8.38a16.59,16.59,0,0,1-5.05-1.21C6.48,76,2.93,73.07,1.7,69.62.77,67,1.17,64.18,2.89,61.13,4.1,59,6.23,58,9.25,58.13a18.35,18.35,0,0,1,6.08,1.54L18.07,61l-2-2.25h0a.17.17,0,0,1,0-.13s.1-.29.77-.58l.44-.2-.09-.48c0-.09-1.76-9.19,1.37-17.88l15.15,2.09c1,.85,7.21,6.74,6.3,15.24l-.18,1.66L41,57.28a5.91,5.91,0,0,1,4.45-1.54c2.66.13,5.48,1.83,5.47,4.72a9.63,9.63,0,0,1-2.69,6.26,3.21,3.21,0,0,1-2.19,1c-1.11-.06-2.15-1.1-3-3l-.42-.93L42,64.6C41,65.89,40.14,66,39.6,66a6.62,6.62,0,0,1-2.52-.92,11.61,11.61,0,0,0-1.77-.8,8.6,8.6,0,0,0-2.24-.43ZM17.24,80.62c6.43.32,8.21-5.19,9.51-9.22.26-.8.5-1.56.76-2.24,1.12-2.86,3-4.26,5.5-4.13a7.14,7.14,0,0,1,1.93.37,10.3,10.3,0,0,1,1.58.72,7.49,7.49,0,0,0,3,1.06A3.55,3.55,0,0,0,42.3,66c1,1.85,2.24,2.83,3.65,2.9A4.27,4.27,0,0,0,49,67.6a10.88,10.88,0,0,0,3.07-7.14c0-3.64-3.4-5.77-6.62-5.93a7.45,7.45,0,0,0-4.23,1c.26-9-6.65-14.8-7-15.06l-.13-.1L17.7,38.11l-.17.45A38.08,38.08,0,0,0,15.86,57.1a2.07,2.07,0,0,0-1,1.06,19,19,0,0,0-5.56-1.23C5.85,56.75,3.26,58,1.84,60.54-.06,63.91-.49,67.1.56,70c1.35,3.79,5.14,6.91,11.26,9.29A17.49,17.49,0,0,0,17.24,80.62Z"/><path class="cls-3" d="M16.42,14.13S16,9,9.68,7.1c0,0-3.62,5.59,3.88,10.41Z"/><path class="cls-4" d="M15.78,14,13.45,16.7a8.61,8.61,0,0,1-3.91-5.08A6,6,0,0,1,10,7.83c4.7,1.59,5.63,5.15,5.8,6.12Zm-2.1,4.35,3.37-4,0-.25c0-.23-.57-5.62-7.17-7.56l-.43-.13-.24.38a7.21,7.21,0,0,0-.82,5.11c.5,2.31,2.14,4.38,4.88,6.14Z"/><path class="cls-4" d="M14,12.22a6.93,6.93,0,0,0-3.73-2.14,9.3,9.3,0,0,0,2.61,5.43Z"/><path class="cls-6" d="M16.45,9.17s-2.74-1.18-5,1.9c.39-2.29,1.82-5.68,8.06-5.21,0,0-.15-2.59-3.47-2.2,2.62-1.9,8.82-4.95,13.82,1.51A3.11,3.11,0,0,0,28.08.63C31.49.41,39.94,1.71,40.54,7.45c4.1,2.45,4.08,2.84,5.05,5.47s1.16,7.74,5.85,7.2c-.25,1.75-5.18,1.56-5.18,1.56,1.58,1.4,4.57,3.43,7,2,.58.52-3.66,2.66-5.81,2.72.64.58,2.49,1.88,3.79,1.28-1,2.26-2.7,4.54-3.48,4.83.06,2.09-4,4.6-5.83,5,3,7.06,8.54,7.66,8.88,7.35-8,2.69-15.72.49-24.2-3.72-1.74-.86-12-11.09-12-11.09L12.26,17.31S13.71,11.18,16.45,9.17Z"/><path class="cls-4" d="M48.1,45a21.83,21.83,0,0,1-5.62.44c-4.54-.23-9.35-1.71-15.6-4.81-1.2-.59-7.58-6.76-11.67-10.84L12.88,17.33c.22-.85,1.61-6,3.93-7.67L17.66,9l-1-.41A4.61,4.61,0,0,0,12.81,9C13.93,7,16.1,6.21,19.48,6.47l.69,0,0-.69A3,3,0,0,0,18,3.19a10,10,0,0,1,5.16-1.32,8.43,8.43,0,0,1,6.29,3.67l.56.73.44-.82a4.14,4.14,0,0,0,.3-3.12,3.35,3.35,0,0,0-.64-1.07c3.67.29,9.41,1.87,9.86,6.25l0,.3.26.16c3.73,2.23,3.85,2.57,4.66,4.8l.14.35c.17.48.33,1.07.49,1.69.6,2.29,1.42,5.38,4.39,5.89a12.38,12.38,0,0,1-3.63.38L44.59,21l1.27,1.12A10.08,10.08,0,0,0,51,24.75a10.17,10.17,0,0,1-3.52,1.05l-1.49,0,1.1,1a6.2,6.2,0,0,0,3.16,1.59A10.28,10.28,0,0,1,47.55,32l-.41.15v.44c.05,1.65-3.65,4-5.35,4.39l-.71.16.29.67A13,13,0,0,0,48.1,45Zm-5.68,1.64h0a22.75,22.75,0,0,0,8.38-1.11.78.78,0,0,0,.42-.19l2.15-2-2.84,1h-.16s-4.71-.31-7.6-6.43c2-.73,5.27-2.85,5.57-5a14.07,14.07,0,0,0,3.45-4.94l.64-1.46L51,27.14a2.53,2.53,0,0,1-2-.38c2-.53,4.56-1.78,4.89-2.67a.77.77,0,0,0-.21-.85l-.32-.3-.39.22a2.91,2.91,0,0,1-1.68.4A6.79,6.79,0,0,1,48,22.25c1.67-.12,3.86-.56,4.07-2l.12-.78-.78.09a4.52,4.52,0,0,1-.81,0c-2.4-.12-3.12-2.16-3.88-5.05-.17-.64-.33-1.26-.53-1.79L46,12.35c-.89-2.45-1.2-3-4.93-5.27C40.37,2.26,34.52.26,29.65,0A14.37,14.37,0,0,0,28,0L25.41.19l2.44,1a2.79,2.79,0,0,1,1.71,1.54,2.43,2.43,0,0,1,.09,1.21A9.22,9.22,0,0,0,23.18.66a12.21,12.21,0,0,0-7.47,2.51L13.84,4.53l2.29-.27a5.2,5.2,0,0,1,.77,0,2,2,0,0,1,1.81,1c-4.48-.1-7.18,1.88-7.84,5.75l-.43,2.54L12,11.42a3.92,3.92,0,0,1,3.2-1.86c-2.27,2.56-3.43,7.38-3.49,7.61l0,.13,2.45,13.06.13.13c1.06,1.05,10.34,10.33,12.12,11.21C32.75,44.87,37.71,46.39,42.42,46.62Z"/><path class="cls-3" d="M37.27,17.66s8.06-1.86,4.64-10.59c0,0-5.83-.9-8.83,6.43Z"/><path class="cls-4" d="M41.48,7.64c.89,2.44.89,4.51,0,6.16a7.09,7.09,0,0,1-4,3.18L33.8,13.36C36.18,8,40.16,7.6,41.48,7.64Zm-4.4,10.68.33-.07a8.5,8.5,0,0,0,5.16-3.88c1.09-2,1.06-4.58-.09-7.52l-.13-.33-.35,0-.37,0c-1.45-.07-6.4.22-9.11,6.84l-.15.37Z"/><path class="cls-3" d="M26.82,41s11.67-.71,13.91-12.72C42.84,17,35.36,12.27,28.51,11s-17.7,1.61-18,17.79c-.15,9.51,3.75,11.3,3.75,11.3s.8,3.38,6.75,3.36C25.15,43.46,26.82,41,26.82,41Z"/><path class="cls-4" d="M25.64,11.35a16.54,16.54,0,0,1,2,.23c2.62.48,7.46,1.88,10.26,6,2,2.83,2.54,6.42,1.74,10.66C37.52,39.6,26.14,40.34,26,40.35l-.3,0-.17.25c-.06.08-1.56,2.2-5.26,2.21-5.39,0-6.15-2.87-6.16-2.9l-.07-.29-.26-.12s-3.54-1.84-3.4-10.74c.1-6.22,1.77-10.9,5-13.91a14,14,0,0,1,10.26-3.52ZM19.5,44c.26,0,.52,0,.79,0a7.77,7.77,0,0,0,6.08-2.51c1.87-.2,12.36-1.83,14.47-13.12.85-4.57.2-8.46-1.94-11.56-3.06-4.43-8.23-6-11-6.46a17,17,0,0,0-2.15-.25A15.18,15.18,0,0,0,14.56,14C11.1,17.23,9.29,22.2,9.19,28.76,9.05,37.28,12.12,39.89,13,40.48,13.36,41.32,14.71,43.79,19.5,44Z"/><path class="cls-1" d="M16.59,21.53A3.7,3.7,0,0,1,13,25.27a3.69,3.69,0,0,1-3.24-4.08,4.13,4.13,0,0,1,1.37-2.92,3.1,3.1,0,0,1,2.25-.81A3.7,3.7,0,0,1,16.59,21.53Z"/><path class="cls-4" d="M13.32,18.06A3.1,3.1,0,0,1,16,21.5a3.11,3.11,0,0,1-3,3.17,3.11,3.11,0,0,1-2.67-3.45,3.55,3.55,0,0,1,1.17-2.5,2.58,2.58,0,0,1,1.83-.66Zm-.39,7.81a4.3,4.3,0,0,0,4.26-4.31,4.31,4.31,0,0,0-3.82-4.71,3.78,3.78,0,0,0-2.68,1,4.8,4.8,0,0,0-1.58,3.35A4.31,4.31,0,0,0,12.93,25.87Z"/><path class="cls-7" d="M15.13,21.54a2.51,2.51,0,1,1-2.37-2.74A2.56,2.56,0,0,1,15.13,21.54Z"/><path class="cls-8" d="M13.51,21.32c0,.79-.53,1.4-1.1,1.38s-1-.69-.95-1.48.53-1.4,1.09-1.37S13.55,20.54,13.51,21.32Z"/><path class="cls-9" d="M13.54,40.07s-6.2-.24-7.88-6.29c-1.72-6.24,2.78-9.26,6.78-10.15C21.31,21.68,27.2,25.71,28.68,32c1.12,4.68-2.63,9.11-2.63,9.11s-2.17,2.66-6.93,2.48C13.91,43.34,13.54,40.07,13.54,40.07Z"/><path class="cls-4" d="M17.55,23.76C23,24,26.92,27.14,28.1,32.09c1,4.33-2.48,8.54-2.51,8.58s-2.07,2.43-6.45,2.26H19c-4.44-.22-4.84-2.82-4.85-2.93l-.07-.51-.51,0c-.24,0-5.8-.35-7.32-5.85a7.05,7.05,0,0,1,.5-5.68,8.9,8.9,0,0,1,5.82-3.72,19,19,0,0,1,5-.46Zm1.39,20.38h.15c5,.19,7.33-2.58,7.43-2.7s3.92-4.71,2.75-9.63c-1.3-5.5-5.66-9-11.66-9.26a20.53,20.53,0,0,0-5.3.49,10.13,10.13,0,0,0-6.6,4.27,8.22,8.22,0,0,0-.63,6.63,9.26,9.26,0,0,0,8,6.69C13.38,41.66,14.59,43.92,18.94,44.14Z"/><path class="cls-10" d="M9.87,17.32s0,.88,1.48.84l-.56.58A1,1,0,0,1,9.87,17.32Z"/><path class="cls-10" d="M10.47,19.06l-.26.64s-1.29.05-1.25-.94A1.73,1.73,0,0,0,10.47,19.06Z"/><path class="cls-10" d="M10,20.07l-.18.75a1.2,1.2,0,0,1-1.24-1.13S9.37,20.53,10,20.07Z"/><path class="cls-5" d="M32.26,13s4.45.82,7.07,7.26c1.61,3.93.76,9.39-2,13.52a14,14,0,0,1-9.92,6.3s9.15-2.67,10.81-11.84c1.47-8.07-3.85-13.44-8.38-14.61Z"/><path class="cls-1" d="M27.38,23.68c-.14,3,1.88,5.57,4.54,5.7s4.92-2.21,5.07-5.23a5.78,5.78,0,0,0-1.51-4.26,4.46,4.46,0,0,0-3-1.44C29.8,18.32,27.53,20.66,27.38,23.68Z"/><path class="cls-4" d="M32.43,19.06A3.84,3.84,0,0,1,35,20.3a5.17,5.17,0,0,1,1.34,3.82c-.13,2.68-2.12,4.77-4.43,4.66s-4.09-2.39-4-5.07,2.12-4.77,4.44-4.65Zm-.54,10.86c3,.15,5.54-2.39,5.7-5.74a6.39,6.39,0,0,0-1.67-4.71,5.07,5.07,0,0,0-3.43-1.62c-3-.15-5.54,2.45-5.71,5.8A5.72,5.72,0,0,0,31.89,29.92Z"/><path class="cls-7" d="M29.82,23.91a3.51,3.51,0,1,0,3.68-3.49A3.59,3.59,0,0,0,29.82,23.91Z"/><path class="cls-8" d="M31.86,23.82a1.81,1.81,0,0,0,1.46,2.07A1.83,1.83,0,0,0,35,24a1.82,1.82,0,0,0-1.47-2.06A1.81,1.81,0,0,0,31.86,23.82Z"/><path class="cls-10" d="M37.31,18.74s-.17,1.22-2.18,1l.7.89S37.53,20.67,37.31,18.74Z"/><path class="cls-10" d="M36.23,21.08l.28.92s1.79.25,1.86-1.13A2.39,2.39,0,0,1,36.23,21.08Z"/><path class="cls-10" d="M36.8,22.55,37,23.62a1.67,1.67,0,0,0,1.88-1.4S37.56,23.28,36.8,22.55Z"/><path class="cls-4" d="M16.06,32.11A1.81,1.81,0,1,0,18,30.5,1.77,1.77,0,0,0,16.06,32.11Z"/><path class="cls-4" d="M6.7,32.07a1.28,1.28,0,0,0,2.55.13,1.28,1.28,0,0,0-2.55-.13Z"/><path class="cls-4" d="M13.51,40.66c11.38-.93,12.11-6.9,12.14-7.16l-1.21-.12.6.06-.6-.06c0,.21-.73,5.23-11,6.07Z"/><path class="cls-4" d="M23,36s1.46,4.74-1.72,6c-2.51,1-4.45-2.55-4.45-2.55S21.74,37.62,23,36Z"/><path class="cls-6" d="M29.72,10.45a13.67,13.67,0,0,1,3,2s-6.44.27-6.94,5.26c0,0-5.17-3.57-1.78-7,0,0-6.19,3.51-4.29,8,0,0-5.16-2.2-1.89-8.15A12.65,12.65,0,0,1,21,9.25Z"/><path class="cls-4" d="M20.82,19.88l-.58-1.38c-1-2.32.56-4.4,2-5.73a4,4,0,0,0,0,.78c.24,2.57,3.06,4.54,3.18,4.62l.84.59.1-1c.45-4.4,6.13-4.7,6.37-4.71l1.5-.07L33.1,12a13.38,13.38,0,0,0-3.19-2.09L29.52,11a10.43,10.43,0,0,1,1.66,1c-2.21.44-5,1.73-5.82,4.56a5.37,5.37,0,0,1-1.91-3.13,2.81,2.81,0,0,1,1-2.3L27.56,8l-3.88,2.19c-.24.14-5.28,3.05-4.95,7.17a4.22,4.22,0,0,1-1.19-1.78A5.73,5.73,0,0,1,18.25,11a12.92,12.92,0,0,1,2.9-1.18l-.32-1.17a13.24,13.24,0,0,0-3.36,1.41l-.13.09-.07.13A7,7,0,0,0,16.4,16a6,6,0,0,0,3.05,3.3Z"/><path class="cls-1" d="M30.8,22.17a.76.76,0,1,0,.8-.73A.77.77,0,0,0,30.8,22.17Z"/><path class="cls-1" d="M10.76,19.77a.56.56,0,0,0,1.12.05.56.56,0,0,0-1.12-.05Z"/><path class="cls-4" d="M37.27,15.88a5.52,5.52,0,0,0,2.67-7A8,8,0,0,0,35.13,14Z"/><path class="cls-3" d="M30.34,47,41.79,34.14s2.07-7.77,5.37-7.55a2.69,2.69,0,0,1,2.73,2.75s7.16.88,7.85,6.49S54.35,44.26,50.65,45s-14,6-14,6Z"/><path class="cls-4" d="M36.89,51.48c.1,0,10.31-5.2,13.88-5.9,4-.78,8.31-3.82,7.57-9.83-.62-5.1-6.16-6.59-7.88-6.93A3.25,3.25,0,0,0,47.2,26h-.05c-3.5-.17-5.54,6.55-5.91,7.86L29.89,46.54l.9.81L42.34,34.43l0-.14c.51-1.88,2.45-7.21,4.72-7.1h0a2.09,2.09,0,0,1,2.16,2.13l0,.55.55.07c.07,0,6.71.89,7.33,6s-3.16,7.81-6.6,8.49c-3.73.73-13.78,5.79-14.2,6Z"/><path class="cls-9" d="M47.33,38.26c.88,2.63,3.43,4.15,5.7,3.39s3.38-3.51,2.5-6.14-3.44-4.15-5.7-3.39S46.44,35.63,47.33,38.26Z"/><path class="cls-4" d="M51.2,32.48A4.48,4.48,0,0,1,55,35.68,4.93,4.93,0,0,1,55,39.07a3.5,3.5,0,0,1-2.1,2.06,3.18,3.18,0,0,1-1.19.16,4.45,4.45,0,0,1-3.81-3.2,4.81,4.81,0,0,1,.06-3.39,3.3,3.3,0,0,1,3.29-2.22Zm.4,9.91a4.31,4.31,0,0,0,1.6-.22A4.55,4.55,0,0,0,56,39.49a6,6,0,0,0,.08-4.16,5.54,5.54,0,0,0-4.8-3.95,4.37,4.37,0,0,0-1.6.22,4.54,4.54,0,0,0-2.76,2.68,5.94,5.94,0,0,0-.09,4.16A5.57,5.57,0,0,0,51.6,42.39Z"/><path class="cls-3" d="M42.17,65.22c.07,0,.93-.89,1.67-3.95Z"/><path class="cls-4" d="M42.52,65.71s1.06-.79,1.91-4.3l-1.18-.28c-.69,2.86-1.46,3.63-1.47,3.63Z"/><path class="cls-9" d="M1.44,65.09c-1.88,3.89,1.7,9.52,8,12.57S22.37,80,24.25,76.14s-1.7-9.51-8-12.56S3.32,61.2,1.44,65.09Z"/><path class="cls-4" d="M9.17,62.29A17.91,17.91,0,0,1,16,64.12a16.67,16.67,0,0,1,6.82,5.75c1.39,2.19,1.71,4.32.89,6C22.69,78,20,79.12,16.52,79A17.93,17.93,0,0,1,9.7,77.11a16.59,16.59,0,0,1-6.82-5.75C1.49,69.18,1.17,67,2,65.36c1-2.1,3.69-3.24,7.18-3.07Zm7.29,17.86c4,.2,7.1-1.2,8.33-3.74,1-2.08.67-4.63-1-7.19A17.88,17.88,0,0,0,16.52,63a19.16,19.16,0,0,0-7.29-2c-4-.2-7.1,1.2-8.33,3.75-1,2.07-.67,4.63,1,7.18A17.81,17.81,0,0,0,9.17,78.2,19,19,0,0,0,16.46,80.15Z"/><path class="cls-5" d="M37.58,51.14s2.41,4.86,1.5,8c0,0,4-2.13,6.83-1.84,2.32.25,3.82,1.76,3.45,4.54-.68,5.15-3.7,5.77-3.7,5.77s3.28.77,4.87-4.77c1.19-4.14-.46-6.26-4.49-7a6.76,6.76,0,0,0-5.79,1.89s.08-5.44-1-7.45Z"/><path class="cls-5" d="M27.53,42.29s-3.12,4.11-9.47,3.06c-.57,7-.24,9.85.12,11.8a11.53,11.53,0,0,1-.11,4S5.37,56.26,1.85,63.43c.18-4.6,5.79-7.13,14.9-3.87l-.84-1,.94-.64s-.91-9,.35-14c0,0,5.3,1.4,9.09-2.18Z"/><path class="cls-11" d="M1.59,66.58s.46-4.41,6.46-4.44c7.71,0,18.28,7.08,15.7,13.64A14.14,14.14,0,0,0,14.64,65C6.56,62.06,2.46,64,1.59,66.58Z"/><path class="cls-5" d="M49.26,29.8s.61-1.71-1.67-2.58-4.78,5-5.28,7.19C38.87,38.34,30.92,47.3,30.92,47.3L43.74,34.94s.67-4.22,2.46-5.83S49.26,29.8,49.26,29.8Z"/><path class="cls-12" d="M22.35,40a1.85,1.85,0,0,0-2.09.28,1.19,1.19,0,0,0-1.36.69,2,2,0,0,0,2.37.49C22.65,40.85,22.35,40,22.35,40Z"/><path class="cls-13" d="M26.77,28.76s-3.89-6.69-12.87-4.85c-9.17,1.87-8.16,7.14-7.7,9.66A7,7,0,0,1,10,26.28C13.18,24.57,19.82,22.87,26.77,28.76Z"/><path class="cls-3" d="M29.47,29.85c0,.4,1.09.79,2.49.86s2.56-.21,2.58-.61-1.1-.79-2.5-.86S29.49,29.44,29.47,29.85Z"/><path class="cls-4" d="M37.4,31.31l.41-1.19c-.15-.13-3.4-2.8-10.71-1.33L27.34,30C34.05,28.62,37.37,31.28,37.4,31.31Z"/><rect class="cls-2" x="55.62" y="64.19" width="11.06" height="2.08"/><path class="cls-1" d="M113.16,54.93,115,47.08h-6.82l-1.83,7.85Zm72.48-22h3.52a.73.73,0,0,1,.75.93l-.37,1.56H193a2.18,2.18,0,0,1,2.25,2.78l-5,21.29a3.83,3.83,0,0,1-3.57,2.78h-3.45l-.43,1.84a1.28,1.28,0,0,1-1.19.92h-3.53a.72.72,0,0,1-.75-.92l.44-1.84h-3.61a2.18,2.18,0,0,1-2.25-2.78l5-21.3a3.82,3.82,0,0,1,3.56-2.78h3.61l.37-1.56a1.27,1.27,0,0,1,1.19-.93Zm-4,5.68-2.09,8.86h1.67l2.09-8.86Zm-4.87,20.62h1.67l2.09-8.86h-1.67l-2.09,8.86Zm13.67-20.62h-1.67l-2.08,8.86h1.67l2.08-8.86Zm-2.77,11.76H186l-2.09,8.86h1.67l2.09-8.86Zm-16.85-3.77,1-4.47L175,39a1.14,1.14,0,0,0,.32-.55l.49-2.12a.73.73,0,0,0-.75-.93H173.4l0-1.76a.72.72,0,0,0-.78-.74h-3.3a1.24,1.24,0,0,0-.85.35,1.11,1.11,0,0,0-.37.79l0,1.37h-5.26a1.27,1.27,0,0,0-1.19.93l-.35,1.47a.73.73,0,0,0,.76.93H169l-9.48,8.06a3.47,3.47,0,0,0-1.19,1.87L154.73,64.1a.72.72,0,0,0,.75.92h2.63a1.28,1.28,0,0,0,1.19-.92l3.3-14a3.35,3.35,0,0,1,1-1.7l1.94-1.86L161.41,64.1a.72.72,0,0,0,.75.92h3.38a1.28,1.28,0,0,0,1.19-.92l2.82-12h1.61a1.27,1.27,0,0,0,1.19-.93l.85-3.63a.73.73,0,0,0-.75-.93Zm30.71-2.42h-3a1,1,0,0,1-.59-.17h0a.87.87,0,0,1-.33-.5,1,1,0,0,1,0-.62,1.31,1.31,0,0,1,.37-.55l9.57-9A1.61,1.61,0,0,1,208,33h0a1.25,1.25,0,0,1,.51-.1h3a1,1,0,0,1,.59.17.87.87,0,0,1,.33.5,1,1,0,0,1,0,.62,1.31,1.31,0,0,1-.37.55l-9.57,9h0a1.61,1.61,0,0,1-.45.3,1.25,1.25,0,0,1-.51.1Zm14.06-11.25H234a.74.74,0,0,1,.75,1l-.35,1.55a1.29,1.29,0,0,1-1.19,1H214.82a.74.74,0,0,1-.76-1l.36-1.55a1.28,1.28,0,0,1,1.19-1ZM199.15,53.82a1.25,1.25,0,0,0,.51-.1,1.38,1.38,0,0,0,.45-.29h0l2-1.82-2.91,12.48a.73.73,0,0,0,.76.93h2.43a1.27,1.27,0,0,0,1.19-.93l4.1-17.63,2-1.88h0a1.28,1.28,0,0,0,.37-.54h0a1,1,0,0,0,0-.61.85.85,0,0,0-.33-.49,1,1,0,0,0-.59-.17h-2.85a1.44,1.44,0,0,0-.5.1,1.82,1.82,0,0,0-.45.29L195.78,52a1.45,1.45,0,0,0-.37.54h0a1,1,0,0,0,0,.61.84.84,0,0,0,.34.48,1,1,0,0,0,.58.17Zm13.6-11.15a1.29,1.29,0,0,0-1.19.95l-.36,1.55a.74.74,0,0,0,.76.95H223.1l-3.58,15.51h-6.08a1.27,1.27,0,0,0-1.19.94l-.35,1.51a.74.74,0,0,0,.75.94h9.12a3.85,3.85,0,0,0,3.57-2.83L229,46.12h2.5a1.29,1.29,0,0,0,1.19-.95l.36-1.55a.74.74,0,0,0-.75-.95Zm-85.58-3.8h2.54a.75.75,0,0,1,.76.94l-1.28,5.49a.73.73,0,0,0,.75.93h22.43a.74.74,0,0,1,.75.94l-3.31,14.21-.19.83A3.84,3.84,0,0,1,146.05,65H130.29a.73.73,0,0,1-.75-.93l.41-1.77a1.29,1.29,0,0,1,1.19-.94h12.68a1.27,1.27,0,0,0,1.19-.94l2.34-10a.74.74,0,0,0-.75-.94H126.65a2.21,2.21,0,0,1-2.26-2.81l.1-.42,1.5-6.42a1.27,1.27,0,0,1,1.18-.94Zm15.13,15.5a.74.74,0,0,0-.75-.94H123.79a1.29,1.29,0,0,0-1.19.94l-.32,1.39a.72.72,0,0,0,.13.66.79.79,0,0,0,.62.28l17.77,0a1.28,1.28,0,0,0,1.18-.94l.32-1.35ZM128.56,32.91h25a2.27,2.27,0,0,1,1.87.83,2.23,2.23,0,0,1,.39,2l-1.93,8.17a1.27,1.27,0,0,1-1.18.93h-3.08a.73.73,0,0,1-.76-.94l1.56-6.62a.75.75,0,0,0-.12-.67.79.79,0,0,0-.63-.27h-21.9a.74.74,0,0,1-.76-.94l.36-1.54a1.29,1.29,0,0,1,1.19-.94ZM108.92,43.85h6.82L117.57,36h-6.82l-1.83,7.85ZM93.15,54.93H100l1.82-7.85H95l-1.83,7.85ZM97.56,36l-1.83,7.85h6.81L104.37,36Zm-1.39-3.09h24.22a2.21,2.21,0,0,1,2.26,2.82l-4.57,19.61a3.83,3.83,0,0,1-3.56,2.81h-8.93l-1.38,5.94A1.27,1.27,0,0,1,103,65H98.58a.73.73,0,0,1-.75-.93l1.38-5.94H90.29A2.19,2.19,0,0,1,88,55.34L92.6,35.73A3.84,3.84,0,0,1,96.17,32.91Z"/><path class="cls-1" d="M96.7,25.67h5.75a.18.18,0,0,1,.17.23L102.34,27a.17.17,0,0,1-.17.13h-7.5a.15.15,0,0,1-.14-.07.16.16,0,0,1,0-.16l2.6-9.93a.18.18,0,0,1,.17-.14h7.26a.21.21,0,0,1,.14.07.22.22,0,0,1,0,.16l-.31,1.17a.17.17,0,0,1-.17.13h-5.7a.18.18,0,0,0-.17.14l-.62,2.36a.22.22,0,0,0,0,.16.21.21,0,0,0,.15.07h5.16a.15.15,0,0,1,.14.07.19.19,0,0,1,0,.16l-.3,1.12a.17.17,0,0,1-.17.13H97.42a.18.18,0,0,0-.17.14l-.72,2.75a.15.15,0,0,0,0,.16.16.16,0,0,0,.14.08Zm16.88-8.87a.18.18,0,0,0-.13.06L110.54,20a6.86,6.86,0,0,0-.56.65.2.2,0,0,1-.18.07.19.19,0,0,1-.14-.13l0-.1a2.87,2.87,0,0,0-.12-.44l-1.3-3.11a.18.18,0,0,0-.17-.11h-1.63a.18.18,0,0,0-.16.09.2.2,0,0,0,0,.17l2.2,4.67a.18.18,0,0,1,0,.21l-5.08,4.85a.18.18,0,0,0,0,.2.16.16,0,0,0,.16.11H105a.13.13,0,0,0,.12-.05l3.47-3.37a7.27,7.27,0,0,0,.51-.67l0,0c.07-.06.11-.11.11-.14a7,7,0,0,0,.27.84L111,27a.18.18,0,0,0,.16.1h1.68A.16.16,0,0,0,113,27a.15.15,0,0,0,0-.17L110.55,22a.17.17,0,0,1,0-.21l4.65-4.64a.18.18,0,0,0,0-.21.16.16,0,0,0-.16-.11Zm7.2,1.54h-2.43a.18.18,0,0,0-.18.14l-.77,3a.21.21,0,0,0,0,.16.17.17,0,0,0,.14.07h2.35a2.29,2.29,0,0,0,2.54-1.73c.2-1-.36-1.55-1.67-1.59Zm-1.11,4.8h-2.58a.17.17,0,0,0-.17.14L116,27a.17.17,0,0,1-.17.13h-1.33a.15.15,0,0,1-.14-.07.16.16,0,0,1,0-.16l2.6-9.93a.18.18,0,0,1,.17-.14h4.38c2.18.1,3.08,1.14,2.73,3.12-.59,2.11-2.08,3.19-4.49,3.22Zm8.13-4.67L127.14,21a.22.22,0,0,0,0,.16.21.21,0,0,0,.14.07h2.54c1.46,0,2.3-.51,2.54-1.54.19-.86-.4-1.3-1.79-1.34H128a.18.18,0,0,0-.17.14Zm5.1,8.63a.18.18,0,0,0,.16-.09.17.17,0,0,0,0-.18l-2.28-3.95a.2.2,0,0,1,0-.17.19.19,0,0,1,.14-.11,3.71,3.71,0,0,0,3.18-2.88q.58-2.82-2.78-2.92h-4.58a.18.18,0,0,0-.17.14L124,26.87a.16.16,0,0,0,0,.16.15.15,0,0,0,.14.07h1.28a.17.17,0,0,0,.17-.13l1.07-4.09a.18.18,0,0,1,.18-.14h1.79a.18.18,0,0,1,.16.1L130.93,27a.16.16,0,0,0,.16.1Zm3.65-1.43h5.75a.18.18,0,0,1,.17.23L142.19,27a.17.17,0,0,1-.17.13h-7.5a.15.15,0,0,1-.14-.07.16.16,0,0,1,0-.16l2.59-9.93a.2.2,0,0,1,.18-.14h7.25a.21.21,0,0,1,.15.07.22.22,0,0,1,0,.16l-.31,1.17a.17.17,0,0,1-.17.13h-5.7a.18.18,0,0,0-.17.14l-.62,2.36a.16.16,0,0,0,0,.16.19.19,0,0,0,.14.07h5.17a.15.15,0,0,1,.14.07.16.16,0,0,1,0,.16l-.29,1.12a.17.17,0,0,1-.17.13h-5.36a.2.2,0,0,0-.18.14l-.72,2.75a.21.21,0,0,0,0,.16.19.19,0,0,0,.15.08Zm16.85-6.16a.17.17,0,0,0,.13-.18c0-1.75-1.11-2.65-3.25-2.68-2.44.07-4,1-4.54,2.87q-.72,2.24,3,3c1.72.37,2.42.93,2.09,1.69-.27,1-1.15,1.5-2.64,1.53s-2.34-.57-2.23-1.91a.19.19,0,0,0-.06-.16.17.17,0,0,0-.17,0l-1.39.39a.18.18,0,0,0-.14.17q-.1,3.18,3.65,3c2.54-.07,4.12-1.06,4.71-3,.51-1.69-.55-2.79-3.16-3.32-1.58-.3-2.21-.78-1.91-1.44.28-.92,1.09-1.37,2.45-1.38a1.5,1.5,0,0,1,1.76,1.6.17.17,0,0,0,.07.14.21.21,0,0,0,.15,0l1.48-.4Zm9.62,0-1.47.4a.22.22,0,0,1-.16,0,.17.17,0,0,1-.07-.14,1.49,1.49,0,0,0-1.75-1.6c-1.36,0-2.18.46-2.46,1.38-.3.66.34,1.14,1.91,1.44,2.62.53,3.67,1.63,3.17,3.32q-.9,2.87-4.72,3t-3.64-3a.16.16,0,0,1,.13-.17l1.4-.39a.16.16,0,0,1,.16,0,.17.17,0,0,1,.06.16c-.11,1.34.63,1.95,2.23,1.91s2.37-.51,2.64-1.53c.33-.76-.37-1.32-2.09-1.69q-3.72-.78-3-3,.87-2.76,4.54-2.87c2.13,0,3.21.93,3.24,2.68A.17.17,0,0,1,163,19.51Z"/></g></g></svg>